<?xml version="1.0" standalone="no"?><!DOCTYPE svg PUBLIC "-//W3C//DTD SVG 1.1//EN" "http://www.w3.org/Graphics/SVG/1.1/DTD/svg11.dtd"><svg t="1740405968184" class="icon" viewBox="0 0 1024 1024" version="1.1" xmlns="http://www.w3.org/2000/svg" p-id="10675" xmlns:xlink="http://www.w3.org/1999/xlink" width="200" height="200"><path d="M1023.835657 505.100613C1020.13598 222.425325 787.856286-3.65491 505.180998 0.044766 222.405719 3.844434-3.674517 236.124128 0.125151 518.899407c3.799668 282.575297 236.079361 508.755524 518.75465 505.055847 282.675288-3.799668 508.855515-236.079361 504.955856-518.854641zM492.5821 280.420255c0-32.197185 26.99764-76.29333 90.692071-76.29333 48.395769 0 62.79451 28.097544 62.794511 60.194738 0 40.196486-32.197185 77.293243-87.092387 77.293242-45.895988 0-67.694082-22.997989-66.394195-61.19465z m-33.497072 539.45284c-33.097107 0-57.394982-20.098243-34.19701-108.490515l37.996678-156.686303c6.599423-25.097806 7.699327-35.196923 0-35.196923-9.899135 0-52.895376 17.398479-78.393147 34.396993L367.992992 526.798716C448.585946 459.504599 541.177851 420.008052 580.974372 420.008052c33.097107 0 38.596626 39.196573 22.098068 99.391311l-43.496197 164.785594c-7.699327 29.097456-4.399615 39.196573 3.299712 39.196574 9.899135 0 42.496285-11.998951 74.493487-37.196749l18.698366 25.097806c-78.393147 78.393147-163.885673 108.590507-196.98278 108.590507z" p-id="10676" fill="#707070"></path></svg>