<?xml version="1.0" standalone="no"?><!DOCTYPE svg PUBLIC "-//W3C//DTD SVG 1.1//EN" "http://www.w3.org/Graphics/SVG/1.1/DTD/svg11.dtd"><svg t="1721293466084" class="icon" viewBox="0 0 1024 1024" version="1.1" xmlns="http://www.w3.org/2000/svg" p-id="27467" xmlns:xlink="http://www.w3.org/1999/xlink" width="200" height="200"><path d="M944 748.64H832v-288A320.8 320.8 0 0 0 560 144v-35.36a48 48 0 1 0-96 0V144a320.8 320.8 0 0 0-272 316.64v288H80a16 16 0 0 0-16 16v64a16 16 0 0 0 16 16h864a16 16 0 0 0 16-16v-64a16 16 0 0 0-16-16z m-352 160H432a16 16 0 0 0-16 16 80 80 0 0 0 80 80h32a80 80 0 0 0 80-80 16 16 0 0 0-16-16z m-471.68-704h41.44a16 16 0 0 0 11.84-5.6A449.76 449.76 0 0 1 326.56 84.8 16 16 0 0 0 336 70.4V35.36a16 16 0 0 0-22.56-14.56 512 512 0 0 0-205.76 157.76 16 16 0 0 0 12.64 26.08zM697.44 84.8A449.76 449.76 0 0 1 850.4 199.04a16 16 0 0 0 11.84 5.6h41.44a16 16 0 0 0 12.64-26.08A512 512 0 0 0 710.56 20.8 16 16 0 0 0 688 35.36V70.4a16 16 0 0 0 9.44 14.4z" p-id="27468" fill="#707070"></path></svg>