<?xml version="1.0" standalone="no"?><!DOCTYPE svg PUBLIC "-//W3C//DTD SVG 1.1//EN" "http://www.w3.org/Graphics/SVG/1.1/DTD/svg11.dtd"><svg t="1758945884473" class="icon" viewBox="0 0 1024 1024" version="1.1" xmlns="http://www.w3.org/2000/svg" p-id="11266" xmlns:xlink="http://www.w3.org/1999/xlink" width="200" height="200"><path d="M945.122 548.965L742.883 448.4c-0.31-0.154-0.635-0.293-0.957-0.434V248.79c0-9.228-5.998-18.908-14.261-23.019L525.428 125.205c-7.502-3.731-18.395-3.734-25.9 0L297.29 225.77c-8.263 4.11-14.26 13.791-14.26 23.02v197.76c-1.812 0.454-3.543 1.063-5.118 1.845L75.682 548.965c-8.267 4.104-14.267 13.786-14.267 23.02v199.272c0 9.234 6 18.915 14.26 23.02l202.238 100.565c3.751 1.868 8.35 2.802 12.95 2.802 4.598 0 9.198-0.934 12.95-2.799l202.231-100.568a23.102 23.102 0 0 0 4.354-2.833 23.188 23.188 0 0 0 4.35 2.833l202.238 100.565c3.751 1.868 8.35 2.8 12.949 2.8 4.597 0 9.197-0.932 12.948-2.797l202.233-100.568c8.267-4.105 14.267-13.786 14.267-23.02V571.985c0-9.233-6-18.915-14.261-23.02z m-15.981 18.828l-196.907 97.919c-0.99 0.425-3.612 0.425-4.57 0.011l-195.706-97.32 195.7-97.32a22.231 22.231 0 0 0 2.557-1.508c0.798 0.018 1.56 0.114 1.987 0.299l196.939 97.919zM717.943 268.272l0.01 179.578c-0.005 0.037-0.02 0.08-0.031 0.122-0.315 0.139-0.633 0.274-0.937 0.425L521.47 545.625V373.56c0-2.56-0.532-5.156-1.475-7.63 1.926-0.46 3.765-1.095 5.432-1.923l192.515-95.735zM510.177 146.694c0.99-0.426 3.613-0.429 4.57-0.014l196.939 97.919-196.908 97.919c-0.988 0.422-3.611 0.428-4.57 0.011l-196.925-97.925 196.894-97.91zM288.562 469.886c0.99-0.422 3.612-0.425 4.57-0.011l196.937 97.918-196.906 97.919c-0.99 0.425-3.612 0.425-4.57 0.011L91.67 567.8l196.891-97.913zM495.37 772.8l-195.514 97.228V696.757c0-2.561-0.532-5.159-1.475-7.633 1.927-0.46 3.765-1.095 5.431-1.923l192.516-95.732 0.01 179.575c-0.087 0.524-0.721 1.548-0.968 1.756z m439.072 0l-195.514 97.227v-173.27c0-2.561-0.532-5.16-1.475-7.635 1.926-0.46 3.764-1.093 5.43-1.922L935.4 591.468l0.01 179.575c-0.086 0.525-0.721 1.55-0.968 1.757z" p-id="11267" fill="#707070"></path></svg>