<?xml version="1.0" standalone="no"?><!DOCTYPE svg PUBLIC "-//W3C//DTD SVG 1.1//EN" "http://www.w3.org/Graphics/SVG/1.1/DTD/svg11.dtd"><svg t="1726130734562" class="icon" viewBox="0 0 1024 1024" version="1.1" xmlns="http://www.w3.org/2000/svg" p-id="8885" xmlns:xlink="http://www.w3.org/1999/xlink" width="200" height="200"><path d="M841.736436 192.995568a448.019714 448.019714 0 0 0-97.793378 94.338461l-0.79975 1.087659a347.507187 347.507187 0 0 0-212.093588-71.625572h-0.959699 0.06398c-191.843929 0-347.315247 152.752169-347.315247 341.14118s155.503308 341.14118 347.315247 341.14118c84.485545 0 161.965285-29.622724 222.170432-78.919288a446.196285 446.196285 0 0 0 89.412003 83.717786A484.776204 484.776204 0 0 1 521.804615 1023.67946h-1.439549 0.06398C253.184727 1023.67946 36.548561 810.914083 36.548561 548.404281S253.216717 73.129101 520.429046 73.129101c123.321385 0 235.798166 45.297816 321.2754 119.866467zM510.768071 643.446521c-58.829579 0-106.462664-46.801345-106.462664-104.575255s47.633085-104.575255 106.462664-104.575255c58.797589 0 106.430674 46.801345 106.430674 104.575255s-47.633085 104.575255-106.430674 104.575255z m203.200373-38.0041c-32.053963 0-58.061819-25.528007-58.06182-57.03814s26.007856-57.03814 58.06182-57.03814c32.085953 0 58.093809 25.528007 58.093809 57.03814s-26.007856 57.03814-58.093809 57.03814z m203.264352-247.15461h-0.447859a47.984975 47.984975 0 0 1-47.952985-47.505125v-0.03199c0-26.263776 21.657219-47.537115 48.368855-47.537115s48.400844 21.273339 48.400844 47.537115-21.689209 47.537115-48.400844 47.537115z m58.02983 152.08038h-0.41587a47.984975 47.984975 0 0 1-47.952985-47.505125v-0.03199c0-26.263776 21.689209-47.537115 48.368855-47.537115 26.711636 0 48.400844 21.273339 48.400844 47.537115s-21.689209 47.537115-48.400844 47.537115z m0 136.501258h-0.41587a47.984975 47.984975 0 0 1-47.952985-47.505125v-0.03199c0-26.263776 21.689209-47.537115 48.368855-47.537115 26.711636 0 48.400844 21.273339 48.400844 47.537115s-21.689209 47.537115-48.400844 47.537115z m-22.776868 167.691492h-0.44786a47.984975 47.984975 0 0 1-47.952985-47.505125v-0.03199c0-26.263776 21.689209-47.537115 48.400845-47.537115 26.679646 0 48.368855 21.273339 48.368854 47.537115s-21.689209 47.537115-48.368854 47.537115z m-112.700711-117.467218h-0.447859a47.984975 47.984975 0 0 1-47.952985-47.505125v-0.03199c0-26.263776 21.689209-47.537115 48.400844-47.537115 26.679646 0 48.368855 21.273339 48.368855 47.537115s-21.657219 47.537115-48.368855 47.537115z m0-186.725532h-0.447859a47.984975 47.984975 0 0 1-47.952985-47.505125v-0.03199c0-26.263776 21.689209-47.537115 48.400844-47.537115 26.679646 0 48.368855 21.273339 48.368855 47.537115s-21.657219 47.537115-48.368855 47.537115z" p-id="8886" fill="#707070"></path></svg>