<?xml version="1.0" standalone="no"?><!DOCTYPE svg PUBLIC "-//W3C//DTD SVG 1.1//EN" "http://www.w3.org/Graphics/SVG/1.1/DTD/svg11.dtd"><svg t="1736818361218" class="icon" viewBox="0 0 1024 1024" version="1.1" xmlns="http://www.w3.org/2000/svg" p-id="11289" xmlns:xlink="http://www.w3.org/1999/xlink" width="200" height="200"><path d="M987.528767 0H524.624658a25.249315 25.249315 0 0 0-25.249316 25.249315V617.205479a25.249315 25.249315 0 0 0 25.249316 25.249316h462.904109a25.249315 25.249315 0 0 0 25.249315-25.249316V25.249315a25.249315 25.249315 0 0 0-25.249315-25.249315zM937.030137 563.90137H577.928767V75.747945H937.030137z m-541.457534 0H36.471233a25.249315 25.249315 0 0 0-25.249315 25.249315v283.353425a25.249315 25.249315 0 0 0 25.249315 25.249315h140.273972v50.49863H86.969863a25.249315 25.249315 0 0 0-25.249315 25.249315v25.249315a25.249315 25.249315 0 0 0 25.249315 25.249315h258.10411a25.249315 25.249315 0 0 0 25.249315-25.249315v-25.249315a25.249315 25.249315 0 0 0-25.249315-25.249315H255.29863V897.753425h140.273973a25.249315 25.249315 0 0 0 25.249315-25.249315v-280.547946a25.810411 25.810411 0 0 0-25.249315-28.054794z m-50.49863 258.104109H86.969863v-179.550684h258.10411zM199.189041 434.849315h78.553425a256.140274 256.140274 0 0 1 143.079452-157.106849V196.383562a333.571507 333.571507 0 0 0-221.632877 238.465753z m583.539726 283.353425h-103.80274a260.348493 260.348493 0 0 1-154.301369 50.49863h-25.249316v78.553425h25.249316a338.060274 338.060274 0 0 0 258.104109-120.635617zM269.326027 771.506849H165.523288a25.249315 25.249315 0 0 1-25.249315-25.249315v-25.249315a25.249315 25.249315 0 0 1 25.249315-25.249315h103.802739a25.249315 25.249315 0 0 1 25.249315 25.249315v25.249315a25.249315 25.249315 0 0 1-25.249315 25.249315m563.90137-645.260274h-154.30137a25.249315 25.249315 0 0 0-25.249315 25.249315v25.249315a25.249315 25.249315 0 0 0 25.249315 25.249316h154.30137a25.249315 25.249315 0 0 0 25.249315-25.249316v-22.443835a28.054795 28.054795 0 0 0-25.249315-28.054795m0 129.052055h-154.30137a25.249315 25.249315 0 0 0-25.249315 25.249315v25.249315a25.249315 25.249315 0 0 0 25.249315 25.249315h154.30137a25.249315 25.249315 0 0 0 25.249315-25.249315V280.547945a25.249315 25.249315 0 0 0-25.249315-25.249315m0 154.30137h-154.30137a25.249315 25.249315 0 0 0-25.249315 25.249315v25.249315a25.249315 25.249315 0 0 0 25.249315 25.249315h154.30137a25.249315 25.249315 0 0 0 25.249315-25.249315v-25.249315a25.249315 25.249315 0 0 0-25.249315-25.249315" p-id="11290" fill="#707070"></path></svg>