<?xml version="1.0" standalone="no"?><!DOCTYPE svg PUBLIC "-//W3C//DTD SVG 1.1//EN" "http://www.w3.org/Graphics/SVG/1.1/DTD/svg11.dtd"><svg t="1728442222643" class="icon" viewBox="0 0 1024 1024" version="1.1" xmlns="http://www.w3.org/2000/svg" p-id="20010" xmlns:xlink="http://www.w3.org/1999/xlink" width="200" height="200"><path d="M838.6 162.8H769V64.3h-97.3v98.5H354.4V64.3H256v98.5h-70c-67.3 0-121.8 56.7-121.8 126.6v544.4c0 69.9 54.5 126.6 121.8 126.6h652.6c67.3 0 121.8-56.7 121.8-126.6V289.4c0-69.9-54.6-126.6-121.8-126.6z m-575 631.9c-39.5 0-71.5-33.3-71.5-74.3s32-74.3 71.5-74.3 71.5 33.3 71.5 74.3-32 74.3-71.5 74.3z m0-299.6c-39.5 0-71.5-33.3-71.5-74.3s32-74.3 71.5-74.3 71.5 33.3 71.5 74.3-32 74.3-71.5 74.3z m248.9 299.6c-39.5 0-71.5-33.3-71.5-74.3s32-74.3 71.5-74.3 71.5 33.3 71.5 74.3-32 74.3-71.5 74.3z m0-299.6c-39.5 0-71.5-33.3-71.5-74.3s32-74.3 71.5-74.3 71.5 33.3 71.5 74.3-32 74.3-71.5 74.3z m247.9 299.6c-39.5 0-71.5-33.3-71.5-74.3s32-74.3 71.5-74.3 71.5 33.3 71.5 74.3-32 74.3-71.5 74.3z m0-299.6c-39.5 0-71.5-33.3-71.5-74.3s32-74.3 71.5-74.3 71.5 33.3 71.5 74.3-32 74.3-71.5 74.3z" fill="#707070" p-id="20011"></path></svg>