<?xml version="1.0" standalone="no"?><!DOCTYPE svg PUBLIC "-//W3C//DTD SVG 1.1//EN" "http://www.w3.org/Graphics/SVG/1.1/DTD/svg11.dtd"><svg t="1736127878437" class="icon" viewBox="0 0 1024 1024" version="1.1" xmlns="http://www.w3.org/2000/svg" p-id="28283" xmlns:xlink="http://www.w3.org/1999/xlink" width="200" height="200"><path d="M871.51 235.98h-74.116V164.418c0-32.402-26.988-58.786-60.492-58.786H287.086c-33.558 0-60.48 26.382-60.48 58.786v201.058H152.482c-33.56 0-60.482 26.48-60.482 58.784v435.322c0 32.422 26.922 58.786 60.482 58.786h449.826c33.558 0 61.334-26.364 61.334-58.786V788.02h207.868c33.536 0 60.49-26.464 60.49-58.766V293.912c0-32.338-26.956-57.932-60.49-57.932zM260.682 164.418c0-14.242 11.616-25.562 26.404-25.562h449.816c14.696 0 26.416 11.32 26.416 25.562v71.562H421.692c-33.492 0-61.334 25.594-61.334 57.932v71.564h-99.676V164.418z m0 234.282h99.676v226.6h-73.272c-14.79 0-26.404-12.156-26.404-26.396V398.7z m368.876 460.882c0 14.208-12.468 25.562-27.25 25.562H152.482c-14.888 0-26.406-11.354-26.406-25.562V424.26c0-14.174 11.518-25.56 26.406-25.56h74.124v200.206c0 32.402 26.922 59.62 60.48 59.62h73.272v70.73c0 32.3 27.842 58.766 61.334 58.766H629.56v71.56z m0-104.786H421.692c-14.684 0-27.258-11.338-27.258-25.542v-70.73h235.124v96.272z m0-129.496H394.434v-226.6h207.876c14.782 0 27.25 11.386 27.25 25.56v201.04z m-27.25-259.824H394.434v-71.564c0-14.208 12.574-25.56 27.258-25.56h341.626v330.552c0 14.24-11.72 26.396-26.416 26.396h-73.26V424.26c0-32.304-27.774-58.784-61.334-58.784z m295.61 363.778c0 14.206-11.684 25.542-26.408 25.542H663.642v-96.274h73.26c33.504 0 60.492-27.216 60.492-59.62V268.352h74.116c14.724 0 26.408 11.352 26.408 25.56v435.342z" fill="#008CDB" p-id="28284"></path></svg>