<?xml version="1.0" standalone="no"?><!DOCTYPE svg PUBLIC "-//W3C//DTD SVG 1.1//EN" "http://www.w3.org/Graphics/SVG/1.1/DTD/svg11.dtd"><svg t="1727056547267" class="icon" viewBox="0 0 1024 1024" version="1.1" xmlns="http://www.w3.org/2000/svg" p-id="10026" xmlns:xlink="http://www.w3.org/1999/xlink" width="200" height="200"><path d="M153.6 435.2C68.9 435.2 0 366.3 0 281.6S68.9 128 153.6 128s153.6 68.9 153.6 153.6-68.9 153.6-153.6 153.6z m0-204.8c-28.2 0-51.2 23-51.2 51.2s23 51.2 51.2 51.2 51.2-23 51.2-51.2-23-51.2-51.2-51.2zM665.6 435.2c-84.7 0-153.6-68.9-153.6-153.6S580.9 128 665.6 128s153.6 68.9 153.6 153.6-68.9 153.6-153.6 153.6z m0-204.8c-28.2 0-51.2 23-51.2 51.2s22.9 51.2 51.2 51.2 51.2-23 51.2-51.2-23-51.2-51.2-51.2zM358.4 896c-84.7 0-153.6-68.9-153.6-153.6s68.9-153.6 153.6-153.6S512 657.7 512 742.4 443.1 896 358.4 896z m0-204.8c-28.2 0-51.2 23-51.2 51.2s23 51.2 51.2 51.2 51.2-23 51.2-51.2-23-51.2-51.2-51.2zM870.4 896c-84.7 0-153.6-68.9-153.6-153.6s68.9-153.6 153.6-153.6S1024 657.7 1024 742.4 955.1 896 870.4 896z m0-204.8c-28.2 0-51.2 23-51.2 51.2s23 51.2 51.2 51.2 51.2-23 51.2-51.2-22.9-51.2-51.2-51.2z" fill="#707070" p-id="10027"></path><path d="M345.8 658.3c-17.9 0-35.2-9.3-44.6-26L192.7 440.1c-13.9-24.6-5.2-55.9 19.4-69.8 24.7-13.8 55.9-5.2 69.8 19.5l108.4 192.1c13.9 24.6 5.2 55.8-19.5 69.8-7.9 4.5-16.5 6.6-25 6.6zM454.1 658.3c-8.5 0-17.1-2.1-25.1-6.6-24.6-13.9-33.3-45.2-19.5-69.8L518 389.8c14-24.6 45.2-33.3 69.8-19.5 24.6 13.9 33.3 45.1 19.4 69.8L498.8 632.2c-9.5 16.7-26.8 26.1-44.7 26.1zM826.5 658.3c-17.9 0-35.2-9.3-44.7-26L673.3 440.1c-13.9-24.6-5.2-55.9 19.5-69.8 24.7-13.9 55.9-5.2 69.8 19.4L871 581.9c13.9 24.6 5.2 55.8-19.5 69.8-7.9 4.5-16.5 6.6-25 6.6z" fill="#707070" p-id="10028"></path></svg>