<?xml version="1.0" standalone="no"?><!DOCTYPE svg PUBLIC "-//W3C//DTD SVG 1.1//EN" "http://www.w3.org/Graphics/SVG/1.1/DTD/svg11.dtd"><svg t="1749910127401" class="icon" viewBox="0 0 1126 1024" version="1.1" xmlns="http://www.w3.org/2000/svg" p-id="31326" xmlns:xlink="http://www.w3.org/1999/xlink" width="219.921875" height="200"><path d="M742.4 0h-358.4C199.68 0 51.2 148.48 51.2 332.8v358.4C51.2 875.52 199.68 1024 384 1024h358.4C926.72 1024 1075.2 875.52 1075.2 691.2v-358.4C1075.2 148.48 926.72 0 742.4 0zM329.386667 566.613333l184.32-186.026666c8.533333-10.24 25.6-11.946667 35.84-1.706667l112.64 114.346667 197.973333-196.266667c6.826667-6.826667 15.36-10.24 23.893333-8.533333 8.533333 1.706667 17.066667 8.533333 18.773334 17.066666 3.413333 8.533333 0 18.773333-5.12 25.6L684.373333 546.133333c-8.533333 10.24-25.6 11.946667-35.84 1.706667l-110.933333-114.346667-168.96 167.253334c-10.24 10.24-25.6 11.946667-35.84 1.706666-11.946667-8.533333-11.946667-25.6-3.413333-35.84z m551.253333 288.426667H245.76c-13.653333 0-25.6-11.946667-25.6-25.6V196.266667c0-13.653333 11.946667-25.6 25.6-25.6s25.6 11.946667 25.6 25.6v607.573333h609.28c13.653333 0 25.6 10.24 25.6 25.6 0 13.653333-11.946667 25.6-25.6 25.6z" fill="#707070" p-id="31327"></path></svg>