<?xml version="1.0" standalone="no"?><!DOCTYPE svg PUBLIC "-//W3C//DTD SVG 1.1//EN" "http://www.w3.org/Graphics/SVG/1.1/DTD/svg11.dtd"><svg t="1736833222229" class="icon" viewBox="0 0 1043 1024" version="1.1" xmlns="http://www.w3.org/2000/svg" p-id="24705" xmlns:xlink="http://www.w3.org/1999/xlink" width="203.7109375" height="200"><path d="M966.884367 703.890375a58.849931 58.849931 0 0 0-65.831923-26.817968c-0.679999 0.082-1.358998 0.068-2.010998 0.189999l-32.141962 5.433994c-16.139981 2.716997-29.153966-6.397993-32.440962-22.739973l-7.579991-37.603956a82.582903 82.582903 0 1 0-87.365898 83.723902 30.919964 30.919964 0 0 0 7.539992 0.094999 82.093904 82.093904 0 0 0 25.53997-4.984994l41.92295-8.69499c15.404982-3.191996 28.379967 4.319995 32.902962 19.019978l9.929988 32.385962c0.34 1.099999 0.978999 1.833998 1.359999 2.839997a58.116932 58.116932 0 0 0 6.505992 17.11598 59.012931 59.012931 0 1 0 101.642881-59.99093z m-412.113517-13.191984a82.596903 82.596903 0 0 0-117.673862 105.487876 30.457964 30.457964 0 0 0 3.477996 6.669992 82.283904 82.283904 0 0 0 16.49198 20.132977l27.509968 32.793961c10.106988 12.049986 9.644989 27.033968-1.181998 38.037956l-23.813973 24.085971a35.823958 35.823958 0 0 0-3.165996 3.735996 58.917931 58.917931 0 1 0 82.746903 3.096996c-0.38-0.569999-0.679999-1.126999-1.113999-1.683998l-19.996976-25.74397c-10.052988-12.918985-8.15099-28.690966 4.659994-39.395953l29.532966-24.452972a82.528903 82.528903 0 0 0 2.526997-142.750832zM930.939409 221.092941a58.876931 58.876931 0 0 0-55.359935 45.536947c-0.162 0.42-0.447999 0.691999-0.609999 1.139998l-10.691988 30.756964c-5.433994 15.459982-19.616977 22.482974-35.537958 17.51098L792.127572 304.600843a82.569903 82.569903 0 1 0 31.543963 116.694863c0.448999-0.583999 0.733999-1.358998 1.140998-2.009997a81.903904 81.903904 0 0 0 10.379988-29.180966l12.483986-40.904952c4.604995-15.037982 17.42998-22.808973 32.508962-19.697977l33.174961 6.859992a34.736959 34.736959 0 0 0 4.862994 0.611999 57.709932 57.709932 0 0 0 16.423981 2.064998 59.012931 59.012931 0 1 0-3.707996-117.944862zM702.697677 921.45312a29.506965 29.506965 0 1 0 59.01293 0 29.506965 29.506965 0 1 0-59.01293 0zM984.518346 531.604577a29.506965 29.506965 0 1 0 59.012931 0 29.506965 29.506965 0 1 0-59.012931 0z" p-id="24706" fill="#707070"></path><path d="M928.697412 463.136657a58.890931 58.890931 0 0 0-55.616935-5.664993 57.559933 57.559933 0 0 0-7.539991 3.137996l-42.112951 21.164975c-9.590989 4.822994-42.194951 17.19898-59.053931 15.758982-5.094994-0.434999-29.805965-1.969998-35.212958-3.287996-28.989966-7.104992-43.688949-13.584984-64.554925-27.006969l-14.372983-9.087989c-4.713994 11.804986-16.301981 22.238974-29.805965 38.336955l-10.432988 10.065988-15.364982 13.584984a249.175708 249.175708 0 0 1-98.789884 53.714938l-33.296961 9.237989-7.226992 1.534998c-19.860977 3.056996-25.98797 4.537995-50.94394 5.759993l2.947997 16.682981c0.543999 24.791971 1.099999 45.399947-7.959991 73.833913-1.684998 5.297994-12.756985 27.469968-15.541982 31.761963-10.514988 16.301981-35.116959 36.502957-44.245948 42.11295l-48.905943 18.692979c-0.313 0.19-0.556999 0.434999-0.855999 0.638999a58.971931 58.971931 0 1 0 81.414905 70.098918 65.764923 65.764923 0 0 0 5.582993-30.688964l-0.855999-42.95595c0-13.774984 7.648991-32.317962 17.32098-49.869942 3.559996-6.452992 8.028991-16.98198 13.707984-23.542972a275.218677 275.218677 0 0 1 21.082975-21.871974c15.622982-14.114983 45.659946-27.685968 66.471922-30.973964l23.406973-2.634997 1.629998 0.176a108.761873 108.761873 0 0 1 57.056933 24.031972 228.961732 228.961732 0 0 1 20.105977 18.760978 120.239859 120.239859 0 0 1 14.942982 19.276977c10.459988 17.10398 18.081979 37.019957 16.85998 49.408942l-4.741994 49.204943a54.176937 54.176937 0 0 0-0.163 5.732993c-0.095 1.289998-0.394 2.525997-0.406999 3.843995a57.056933 57.056933 0 1 0 84.8239-53.456937l-41.066952-23.093973c-9.359989-5.257994-19.833977-18.217979-28.079967-32.984961a105.419876 105.419876 0 0 1-6.656992-14.616983c-10.324988-27.998967-14.032984-73.739914-0.651999-100.406883l9.509989-19.140977a100.922882 100.922882 0 0 1 7.375991-12.226986c13.706984-16.002981 46.582945-32.711962 66.729922-38.662954a229.708731 229.708731 0 0 1 26.802968-6.166993 119.22186 119.22186 0 0 1 24.357972-1.643998c20.023977 0.896999 40.754952 5.705993 50.386941 13.584984l38.037955 31.503963c1.507998 1.249999 3.082996 2.281997 4.645995 3.341996 1.031999 0.800999 1.887998 1.737998 2.974996 2.485997a59.026931 59.026931 0 0 0 81.984904-15.527982c7.104992-10.459988 24.181972-54.869936-15.703981-81.957904zM205.392259 918.546124a29.506965 29.506965 0 1 0 59.012931 0 29.506965 29.506965 0 1 0-59.012931 0z" p-id="24707" fill="#707070"></path><path d="M371.142065 358.30078a82.569903 82.569903 0 0 0-66.334922-40.469952 31.380963 31.380963 0 0 0-7.512991-0.095 82.514903 82.514903 0 0 0-25.55297 4.999994l-41.922951 8.69399c-15.405982 3.192996-28.379967-4.319995-32.902962-19.018978l-9.930988-32.372962c-0.34-1.099999-0.977999-1.833998-1.358999-2.839997a58.184932 58.184932 0 0 0-6.506992-17.12998 59.012931 59.012931 0 1 0-35.809958 86.807899c0.679999-0.068 1.358998 0 2.009998-0.176l32.142962-5.433994c16.138981-2.716997 29.152966 6.397993 32.439962 22.739973l7.580991 37.603956a82.582903 82.582903 0 1 0 153.65982-43.308949z m236.079723-130.510847a31.543963 31.543963 0 0 0-3.489995-6.683992 81.957904 81.957904 0 0 0-16.492981-20.119977l-27.509968-32.806961c-10.106988-12.049986-9.644989-27.033968 1.181999-38.037956l23.814972-24.085971a34.46496 34.46496 0 0 0 3.164996-3.735996 58.904931 58.904931 0 1 0-82.745903-3.083996c0.38 0.556999 0.678999 1.127999 1.113999 1.684998l19.996976 25.72997c10.052988 12.918985 8.14999 28.704966-4.659994 39.395953l-29.533966 24.452972a82.569903 82.569903 0 1 0 115.159865 37.290956zM288.124162 563.787539a82.487903 82.487903 0 0 0-67.462921 38.852955c-0.447999 0.597999-0.732999 1.358998-1.139998 2.023997a81.903904 81.903904 0 0 0-10.339988 29.179966l-12.564985 40.986952c-4.605995 15.037982-17.42998 22.808973-32.509962 19.697977l-33.173961-6.792992a32.725962 32.725962 0 0 0-4.849995-0.623999 58.904931 58.904931 0 1 0 42.66995 70.369917c0.164-0.434999 0.449999-0.706999 0.612-1.154998l10.691987-30.782964c5.365994-15.459982 19.615977-22.483974 35.537958-17.51198l36.611957 11.424987a82.582903 82.582903 0 1 0 35.917958-155.547818zM282.609169 102.50908a29.506965 29.506965 0 1 0 59.012931 0 29.506965 29.506965 0 1 0-59.012931 0zM0.0005 498.334616a29.506965 29.506965 0 1 0 59.012931 0 29.506965 29.506965 0 1 0-59.012931 0z" p-id="24708" fill="#707070"></path><path d="M778.868587 192.250975a58.890931 58.890931 0 0 0-117.686862 3.029996 56.241934 56.241934 0 0 0 0.408 12.402986l2.281997 44.409948a33.513961 33.513961 0 0 1 0 4.210995 116.001864 116.001864 0 0 1-27.943967 68.22392 230.50973 230.50973 0 0 1-19.019978 19.819976c-15.499982 14.264983-46.812945 33.96296-67.584921 37.439957l-12.782985 1.562998-11.805986-1.358999a108.543873 108.543873 0 0 1-57.056933-24.030971 228.961732 228.961732 0 0 1-20.145976-18.679979 120.239859 120.239859 0 0 1-14.943983-19.276977c-10.459988-17.10298-18.080979-37.005957-16.85898-49.394942l4.849994-49.149943a54.339936 54.339936 0 0 0 0.163-5.732993c0.095-1.290998 0.394-2.526997 0.407999-3.830995a59.026931 59.026931 0 1 0-91.644892 48.905942 57.382933 57.382933 0 0 0 6.792992 4.482995l41.066952 23.025973c9.359989 5.257994 19.833977 18.217979 28.066967 32.997961a103.245879 103.245879 0 0 1 6.669992 14.617983c10.324988 27.984967 14.032984 73.724914 0.651999 100.405883l-16.43798 28.609966-1.642999 2.200998c-13.381984 16.301981-46.053946 33.595961-66.145922 39.926953a230.46973 230.46973 0 0 1-26.679969 6.628992 120.824858 120.824858 0 0 1-24.331971 2.078998c-20.036977-0.556999-40.889952-4.999994-50.616941-12.769985l-38.581955-30.837964a56.173934 56.173934 0 0 0-4.713994-3.259997c-1.031999-0.774999-1.901998-1.711998-3.001997-2.431997a59.012931 59.012931 0 1 0-8.843989 103.516879 56.309934 56.309934 0 0 0 7.471991-3.286996l41.678951-21.885974c9.509989-4.984994 41.895951-17.931979 58.767931-16.789981 5.107994 0.352 29.886965 1.452998 35.320959 2.715997 29.112966 6.588992 43.919949 12.851985 65.031924 25.81197l14.521983 8.829989c4.374995-11.559986 15.337982-22.020974 28.079967-37.602956l27.006968-23.990971a249.339708 249.339708 0 0 1 98.789884-53.715937l38.513955-10.676988h0.136c20.865976-4.414995 27.862967-7.349991 50.508941-10.989987a41.651951 41.651951 0 0 1-2.716997-11.533987 121.272858 121.272858 0 0 1-0.38-24.018971c1.819998-23.297973 1.221999-21.232975 9.603989-48.443944 1.643998-5.310994 13.014985-27.305968 15.255982-31.909962 7.063992-14.468983 32.223962-34.764959 42.439951-41.638951a25.63497 25.63497 0 0 1 3.015996-1.751998l37.018957-18.937978a58.822931 58.822931 0 0 0 37.045956-57.925932zM774.833592 89.495095a29.506965 29.506965 0 1 0 59.013931 0 29.506965 29.506965 0 1 0-59.013931 0z" p-id="24709" fill="#707070"></path></svg>