<?xml version="1.0" standalone="no"?><!DOCTYPE svg PUBLIC "-//W3C//DTD SVG 1.1//EN" "http://www.w3.org/Graphics/SVG/1.1/DTD/svg11.dtd"><svg t="1721293010339" class="icon" viewBox="0 0 1024 1024" version="1.1" xmlns="http://www.w3.org/2000/svg" p-id="12950" xmlns:xlink="http://www.w3.org/1999/xlink" width="200" height="200"><path d="M768 255.288889h-9.244444c-6.4 0-12.088889 0.711111-18.488889 1.422222-78.933333 8.533333-149.333333 53.333333-190.577778 120.177778 18.488889 22.755556 34.844444 47.644444 50.488889 71.822222 7.111111 10.666667 13.511111 21.333333 20.622222 32 0.711111-2.133333 1.422222-6.4 2.844444-9.955555 0.711111-2.844444 1.422222-5.688889 2.133334-6.4 0.711111-1.422222 1.422222-3.555556 2.133333-4.977778 0.711111-1.422222 0.711111-2.844444 1.422222-4.266667 0.711111-2.133333 1.422222-4.266667 2.844445-6.4 0.711111-1.422222 1.422222-3.555556 2.133333-4.977778 22.755556-45.511111 67.555556-76.088889 118.044445-81.777777 1.422222 0 3.555556 0 5.688888-0.711112h11.377778c83.2 0 150.044444 67.555556 150.044445 150.044445V526.222222c0 2.133333 0 3.555556-0.711111 5.688889 0 2.133333-0.711111 3.555556-0.711112 5.688889 0 0.711111 0 1.422222-0.711111 2.133333 0 1.422222-0.711111 2.844444-0.711111 4.266667 0 0.711111-0.711111 2.133333-0.711111 2.844444 0 1.422222-0.711111 2.133333-0.711111 3.555556l-2.133333 6.4c-0.711111 2.133333-1.422222 4.266667-2.133334 7.111111-0.711111 2.133333-2.133333 4.977778-2.844444 7.111111s-1.422222 4.266667-2.844445 6.4c0 0 0 0.711111-0.711111 0.711111-0.711111 1.422222-1.422222 3.555556-2.844444 4.977778-0.711111 1.422222-1.422222 3.555556-2.844445 4.977778-0.711111 1.422222-1.422222 2.844444-2.844444 4.266667-5.688889 9.244444-12.088889 17.777778-19.911111 24.888888l-4.266667 4.266667-3.555555 3.555556c-0.711111 0.711111-1.422222 0.711111-1.422223 1.422222-1.422222 0.711111-2.133333 2.133333-3.555555 2.844444-1.422222 1.422222-2.844444 2.133333-4.266667 3.555556s-2.844444 2.133333-4.977778 3.555555c-4.977778 3.555556-9.955556 6.4-14.933333 9.244445l-4.266667 2.133333h-0.711111c-2.133333 0.711111-4.266667 2.133333-6.4 2.844445s-3.555556 1.422222-5.688889 2.133333c-0.711111 0-1.422222 0.711111-2.133333 0.711111l-6.4 2.133333c-2.133333 0.711111-4.266667 1.422222-6.4 1.422223-2.844444 0.711111-4.977778 1.422222-7.822222 2.133333-9.955556 2.133333-19.911111 2.844444-30.577778 2.844444-91.733333 0-140.088889-66.844444-209.066667-177.777777-59.733333-95.288889-126.577778-201.955556-253.155555-224.711111h-2.133333c-1.422222 0-2.844444-0.711111-4.977778-0.711112s-4.977778-0.711111-7.822222-0.711111c-1.422222 0-2.133333 0-3.555556-0.711111h-0.711111c-2.133333 0-4.266667-0.711111-6.4-0.711111-2.844444 0-5.688889-0.711111-7.822222-0.711111h-16.355556C115.911111 255.288889 0.711111 370.488889 0.711111 512c0 119.466667 81.777778 219.733333 192.711111 248.177778l10.666667 2.133333c0.711111 0 1.422222 0 2.133333 0.711111 16.355556 3.555556 34.133333 4.977778 51.911111 4.977778 68.266667 0 132.266667-26.311111 180.622223-74.666667l29.155555 24.888889-13.511111-119.466666-120.177778 4.977777 24.177778 20.622223c-2.844444 2.133333-4.977778 4.266667-7.822222 6.4-14.933333 11.377778-31.288889 19.911111-49.066667 24.888888-13.511111 4.266667-27.733333 6.4-42.666667 6.4-12.8 0-25.6-1.422222-37.688888-4.977777C155.022222 640.711111 106.666667 581.688889 106.666667 512c0-83.2 67.555556-150.044444 150.044444-150.044444 38.4 0 68.977778 11.377778 96.711111 32 40.533333 30.577778 74.666667 81.066667 115.911111 147.2 35.555556 56.888889 73.244444 118.044444 125.155556 162.133333 44.8 39.111111 100.266667 64.711111 173.511111 64.711111h19.911111c2.844444 0 6.4-0.711111 9.244445-0.711111h2.133333c11.377778-1.422222 22.044444-3.555556 32.711111-5.688889h0.711111l8.533333-2.133333c2.844444-0.711111 6.4-2.133333 9.244445-2.844445 1.422222-0.711111 2.844444-0.711111 3.555555-1.422222 2.844444-0.711111 4.977778-2.133333 7.822223-2.844444 2.844444-0.711111 4.977778-2.133333 7.822222-3.555556 1.422222-0.711111 2.133333-0.711111 3.555555-1.422222 2.133333-0.711111 3.555556-1.422222 5.688889-2.844445 2.133333-0.711111 3.555556-1.422222 5.688889-2.844444 2.133333-1.422222 4.266667-2.133333 7.111111-3.555556 2.133333-0.711111 4.266667-2.133333 5.688889-3.555555 1.422222-0.711111 2.133333-1.422222 3.555556-2.133334 2.133333-0.711111 3.555556-2.133333 5.688889-3.555555 1.422222-0.711111 2.844444-2.133333 4.266666-2.844445 3.555556-2.133333 7.822222-4.977778 11.377778-7.822222 1.422222-0.711111 2.844444-2.133333 4.266667-3.555555 2.133333-1.422222 3.555556-2.844444 5.688889-4.266667 0.711111-0.711111 2.133333-1.422222 2.844444-2.844444 2.133333-2.133333 4.266667-3.555556 6.4-5.688889l6.4-6.4c4.977778-4.977778 10.666667-10.666667 14.933333-16.355556 1.422222-2.133333 3.555556-3.555556 4.977778-5.688889 0.711111-0.711111 1.422222-1.422222 1.422222-2.133333 1.422222-1.422222 2.844444-3.555556 3.555556-4.977778 1.422222-1.422222 2.133333-3.555556 3.555556-4.977778 0.711111-1.422222 2.133333-2.844444 2.844444-4.266666 3.555556-5.688889 7.111111-10.666667 10.666667-16.355556 0.711111-1.422222 2.133333-3.555556 2.844444-4.977778 0.711111-2.133333 2.133333-3.555556 2.844445-5.688889 0.711111-2.133333 2.133333-3.555556 2.844444-5.688888 0.711111-1.422222 1.422222-3.555556 2.133333-4.977778 7.111111-14.933333 12.8-31.288889 16.355556-48.355556 0.711111-2.133333 0.711111-4.266667 1.422222-6.4 0-1.422222 0.711111-3.555556 0.711111-4.977778 0.711111-4.977778 1.422222-9.244444 2.133334-14.222222 0-2.133333 0.711111-4.266667 0.711111-6.4s0.711111-4.266667 0.711111-6.4 0-4.266667 0.711111-6.4v-4.266666-3.555556-5.688889c1.422222-142.222222-113.777778-257.422222-255.288889-257.422222z" fill="#707070" p-id="12951"></path><path d="M140.088889 452.977778h22.044444v46.933333h0.711111l25.6-46.933333h24.177778L184.888889 500.622222l32.711111 71.111111h-24.177778l-21.333333-48.355555-9.955556 17.066666v31.288889h-22.044444V452.977778zM226.844444 452.977778h58.311112V476.444444H248.888889v22.044445h30.577778v24.177778H248.888889V547.555556h36.977778v24.177777h-59.022223V452.977778zM304.355556 452.977778h57.6V476.444444h-36.266667v22.044445h30.577778v24.177778h-30.577778V547.555556h37.688889v24.177777h-59.022222V452.977778zM381.866667 452.977778h32c19.911111 0 36.977778 9.244444 36.977777 38.4 0 28.444444-17.066667 40.533333-36.266666 40.533333h-10.666667v39.111111h-22.044444V452.977778z m31.288889 56.177778c10.666667 0 15.644444-6.4 15.644444-18.488889s-5.688889-16.355556-16.355556-16.355556h-9.244444v34.133333l9.955556 0.711112zM502.044444 544h-27.022222l-4.977778 27.022222H448l28.444444-118.044444h26.311112l28.444444 118.044444h-22.755556l-6.4-27.022222z m-4.266666-22.044444l-1.422222-9.955556c-2.133333-12.088889-4.977778-25.6-7.111112-37.688889h-0.711111c-2.133333 12.088889-4.977778 26.311111-7.111111 37.688889l-2.133333 9.955556H497.777778zM540.444444 452.977778h22.044445V547.555556h35.555555v24.177777H540.444444V452.977778zM613.688889 452.977778h22.044444v118.044444h-22.044444V452.977778zM644.977778 452.977778H668.444444l10.666667 54.044444c2.844444 12.8 4.266667 24.888889 7.111111 37.688889h0.711111c2.844444-12.8 4.266667-24.888889 7.111111-37.688889l9.955556-54.044444h22.044444l-27.733333 118.044444h-26.311111l-27.022222-118.044444zM735.288889 452.977778h57.6V476.444444h-36.266667v22.044445h30.577778v24.177778h-30.577778V547.555556h36.977778v24.177777h-59.022222V452.977778h0.711111zM812.8 452.977778h26.311111c27.733333 0 46.222222 17.066667 46.222222 58.311111s-18.488889 59.733333-44.8 59.733333h-27.733333V452.977778z m24.888889 95.288889c14.933333 0 24.888889-8.533333 24.888889-36.977778s-10.666667-36.266667-24.888889-36.266667h-2.844445V547.555556l2.844445 0.711111z" p-id="12952" fill="#707070"></path></svg>