<?xml version="1.0" standalone="no"?><!DOCTYPE svg PUBLIC "-//W3C//DTD SVG 1.1//EN" "http://www.w3.org/Graphics/SVG/1.1/DTD/svg11.dtd"><svg t="1728442135495" class="icon" viewBox="0 0 1024 1024" version="1.1" xmlns="http://www.w3.org/2000/svg" p-id="15962" xmlns:xlink="http://www.w3.org/1999/xlink" width="200" height="200"><path d="M304.597333 170.666667v640h414.805334V170.666667H304.64z m29.610667-128h355.584c59.989333 0 88.874667 41.856 88.874667 106.666666v725.333334c0 64.810667-28.885333 106.666667-88.874667 106.666666H334.208c-59.989333 0-88.874667-41.856-88.874667-106.666666v-725.333334c0-64.810667 28.885333-106.666667 88.874667-106.666666z" fill="#707070" p-id="15963"></path><path d="M298.666667 170.666667v640h426.666666V170.666667z" fill="#707070" opacity=".3" p-id="15964"></path><path d="M512 896m-42.666667 0a42.666667 42.666667 0 1 0 85.333334 0 42.666667 42.666667 0 1 0-85.333334 0Z" fill="#707070" p-id="15965"></path></svg>