<?xml version="1.0" standalone="no"?><!DOCTYPE svg PUBLIC "-//W3C//DTD SVG 1.1//EN" "http://www.w3.org/Graphics/SVG/1.1/DTD/svg11.dtd"><svg t="1722325423390" class="icon" viewBox="0 0 1024 1024" version="1.1" xmlns="http://www.w3.org/2000/svg" p-id="17831" xmlns:xlink="http://www.w3.org/1999/xlink" width="200" height="200"><path d="M863.597714 859.282286H160.109714A153.6 153.6 0 0 1 6.802286 705.974857V153.307429A153.6 153.6 0 0 1 160.182857 0h703.488a153.6 153.6 0 0 1 153.307429 153.307429v552.667428a153.6 153.6 0 0 1-153.307429 153.307429zM160.109714 83.602286a69.705143 69.705143 0 0 0-69.632 69.705143v552.667428a69.705143 69.705143 0 0 0 69.632 69.705143h703.488a69.705143 69.705143 0 0 0 69.705143-69.705143V153.307429a69.705143 69.705143 0 0 0-69.705143-69.705143H160.109714z" fill="#707070" p-id="17832"></path><path d="M252.342857 165.522286h519.021714c37.156571 0 55.734857 18.651429 55.734858 55.808v416.402285c0 37.156571-18.578286 55.734857-55.734858 55.734858H252.342857c-37.156571 0-55.734857-18.578286-55.734857-55.734858V221.330286c0-37.156571 18.578286-55.808 55.734857-55.808zM352.694857 910.848h318.610286c32.475429 0 48.786286 16.237714 48.786286 48.786286v15.579428c0 32.548571-16.310857 48.786286-48.786286 48.786286H352.694857c-32.475429 0-48.786286-16.237714-48.786286-48.786286v-15.579428c0-32.548571 16.310857-48.786286 48.786286-48.786286z" fill="#707070" p-id="17833"></path></svg>