<?xml version="1.0" standalone="no"?><!DOCTYPE svg PUBLIC "-//W3C//DTD SVG 1.1//EN" "http://www.w3.org/Graphics/SVG/1.1/DTD/svg11.dtd"><svg t="1722685797609" class="icon" viewBox="0 0 1024 1024" version="1.1" xmlns="http://www.w3.org/2000/svg" p-id="15129" xmlns:xlink="http://www.w3.org/1999/xlink" width="200" height="200"><path d="M937.2 851.5V599c-0.7-23.7-20.1-42.7-44-42.7s-43.3 19-44 42.7v217H178.5V599c-0.7-23.7-20.1-42.7-44-42.7s-43.3 19-44 42.7v252.5c0 28.9 23.6 52.5 52.5 52.5h741.8c28.8 0 52.4-23.6 52.4-52.5z" p-id="15130" fill="#707070"></path><path d="M482.8 625.2c17.1 17.1 45.1 17.1 62.2 0l164-164c17.1-17.1 17.1-45.1 0-62.2s-45.1-17.1-62.2 0l-85.7 85.7V169.9c0-26-21.3-47.2-47.2-47.2-26 0-47.2 21.3-47.2 47.2v314.7L381 398.9c-17.1-17.1-45.1-17.1-62.2 0s-17.1 45.1 0 62.2l164 164.1z" p-id="15131" fill="#707070"></path></svg>