<?xml version="1.0" standalone="no"?><!DOCTYPE svg PUBLIC "-//W3C//DTD SVG 1.1//EN" "http://www.w3.org/Graphics/SVG/1.1/DTD/svg11.dtd"><svg t="1740361978860" class="icon" viewBox="0 0 1025 1024" version="1.1" xmlns="http://www.w3.org/2000/svg" p-id="9390" xmlns:xlink="http://www.w3.org/1999/xlink" width="200.1953125" height="200"><path d="M593.100724 199.565244c-11.582514 0-23.847529 7.495009-32.016289 19.561274-12.202515 17.968772-11.537514 41.2013 1.435002 50.761312 3.701255 2.730003 8.10001 4.106255 13.032516 4.106255l0.01 0c11.577514 0 23.852529-7.495009 32.031289-19.550024 12.202515-17.993772 11.552514-41.2313-1.416252-50.752562C602.436985 200.952745 598.04323 199.565244 593.100724 199.565244L593.100724 199.565244z" fill="#707070" p-id="9391"></path><path d="M499.33186 405.756745c7.187509 0 13.408766 2.988754 17.553771 8.40876 7.305009 9.575012 7.382509 25.458781 0.25375 51.528813-4.218755 15.415019-8.808761 31.855039-13.565017 48.91506-28.545035 102.340125-64.071328 229.70278-62.797577 284.244097 0.405 18.168772 7.295009 25.576281 23.780029 25.576281 15.208769 0 33.281291-6.870008 39.887549-9.922512 3.798755-2.480003 23.246278-15.366269 44.740055-33.14004 22.436277-18.533773 47.602558-42.085051 60.791324-54.662567l-2.056253-2.152503-40.463799 35.692544c-6.278758 5.835007-29.008785 25.576281-47.602558 25.576281-7.323759 0-13.760017-2.963754-18.125022-8.35376-7.153759-8.825011-8.29626-23.203778-3.623754-45.265055 0.08375-0.650001 5.230006-33.636291 22.706278-102.337625 7.538759-29.638786 17.768772-66.325081 29.613786-108.795133 10.430013-37.431296 22.261277-79.857597 35.195043-127.953906 0.962501-3.598754 2.581253-15.126268-2.197503-21.352526-4.306255-5.605007-14.882518-7.318759-29.990037-4.882506-21.797527 3.525004-51.752563 18.432523-80.117598 39.877549-27.392533 20.688775-49.16506 43.583803-60.820074 57.18757l2.466253 2.197503C435.464282 444.546793 475.591831 405.756745 499.33186 405.756745L499.33186 405.756745z" fill="#707070" p-id="9392"></path><path d="M512.011875 0C229.23403 0 0 229.23403 0 512.011875c0 282.759095 229.23403 511.988125 512.011875 511.988125 282.774095 0 511.998125-229.22403 511.998125-511.988125C1024.01 229.23403 794.78597 0 512.011875 0zM539.716909 204.634c12.895016-19.052523 33.350041-30.888788 53.373815-30.888788 10.395013 0 20.190025 3.150004 28.340035 9.106261 24.25753 17.812522 27.631284 56.411319 7.525009 86.060105-12.910016 19.062523-33.368791 30.898788-53.393815 30.898788-10.410013 0-20.205025-3.155004-28.340035-9.131261C522.979388 272.822833 519.614384 234.234036 539.716909 204.634zM637.265778 736.314649c-1.571252 1.537502-38.743797 37.818796-71.610087 64.962579-25.127531 20.785025-47.026307 34.832543-47.948809 35.423793l-1.372502 0.761251c-1.108751 0.507501-26.953783 12.778766-51.776313 12.778766-30.796288 0-48.86756-18.511273-49.595061-50.795062-1.357502-58.378821 33.227541-182.373973 63.740078-291.777856 4.751256-17.016271 9.331261-33.418791 13.545017-48.79881 4.218755-15.430019 4.600006-23.208778 4.341255-26.787533-12.510015 3.988755-43.995054 30.683787-71.192587 60.781324l-8.59751 9.526262-39.487548-35.243793 7.070009-9.477512c11.040013-14.805018 39.697548-46.060056 73.37384-71.498837 32.041289-24.22378 65.41508-40.537549 91.572612-44.766305 5.806257-0.937501 11.288764-1.406252 16.31377-1.406252 21.557526 0 32.77879 8.818761 38.398797 16.22627 13.286266 17.508771 7.221259 41.09755 6.485008 43.730053-12.940016 48.091309-24.77503 90.576361-35.230043 128.056406-11.797514 42.330052-21.987527 78.887596-29.448786 108.232632-17.113771 67.290082-22.290027 100.297622-22.343777 100.630123-2.895004 13.730017-2.520003 20.243775-2.021252 22.941278 6.626258-1.513752 19.892524-10.543763 28.676285-18.691273l59.282572-52.291314 36.967545 38.555047L637.265778 736.314649z" fill="#707070" p-id="9393"></path><path d="M512.011875 999.03622" fill="#707070" p-id="9394"></path></svg>