<?xml version="1.0" standalone="no"?><!DOCTYPE svg PUBLIC "-//W3C//DTD SVG 1.1//EN" "http://www.w3.org/Graphics/SVG/1.1/DTD/svg11.dtd"><svg t="1731633778742" class="icon" viewBox="0 0 1024 1024" version="1.1" xmlns="http://www.w3.org/2000/svg" p-id="11438" xmlns:xlink="http://www.w3.org/1999/xlink" width="200" height="200"><path d="M864 64a64 64 0 0 1 64 64v768a64 64 0 0 1-64 64h-704a64 64 0 0 1-64-64V128a64 64 0 0 1 64-64h704z m0 64h-704v768h704V128zM704 704a32 32 0 1 1 0 64H320a32 32 0 1 1 0-64h384z m0-128a32 32 0 1 1 0 64H320a32 32 0 0 1 0-64h384zM484.48 192a128 128 0 0 1 112.448 189.248l59.776 52.736a32 32 0 0 1-42.368 48l-61.12-54.016A128 128 0 1 1 484.48 192z m0 64a64 64 0 1 0 0 128 64 64 0 0 0 0-128z" fill="#707070" p-id="11439"></path></svg>