<?xml version="1.0" standalone="no"?><!DOCTYPE svg PUBLIC "-//W3C//DTD SVG 1.1//EN" "http://www.w3.org/Graphics/SVG/1.1/DTD/svg11.dtd"><svg t="1750988471591" class="icon" viewBox="0 0 1024 1024" version="1.1" xmlns="http://www.w3.org/2000/svg" p-id="7220" xmlns:xlink="http://www.w3.org/1999/xlink" width="200" height="200"><path d="M225.8944 933.888a288.4608 288.4608 0 0 1-144.4352-144.6912 35.2256 35.2256 0 1 0-64.256 28.928 358.8096 358.8096 0 0 0 179.712 179.968 35.2256 35.2256 0 1 0 28.9792-64.2048zM34.9184 244.5312a35.2256 35.2256 0 0 0 46.5408-17.664 288.512 288.512 0 0 1 144.4352-144.6912 35.2256 35.2256 0 0 0-29.0304-64.2048A358.8096 358.8096 0 0 0 17.2032 197.9904a35.2256 35.2256 0 0 0 17.664 46.592zM119.808 322.56a35.2256 35.2256 0 0 0 64.256 28.9792 332.288 332.288 0 0 1 166.4-166.7072 35.2256 35.2256 0 0 0-29.0304-64.2048A402.7904 402.7904 0 0 0 119.808 322.6112z m544.4096-137.728a332.288 332.288 0 0 1 166.4 166.7072 35.2256 35.2256 0 0 0 64.256-28.928 402.7904 402.7904 0 0 0-201.6768-201.984 35.2256 35.2256 0 1 0-28.9792 64.256z m124.5696-102.6048a288.512 288.512 0 0 1 144.4352 144.6912 35.2256 35.2256 0 1 0 64.256-28.928 358.8096 358.8096 0 0 0-179.712-180.0192 35.2256 35.2256 0 0 0-28.9792 64.256z m106.0864 611.328a35.2256 35.2256 0 0 0-64.256-28.9792 332.288 332.288 0 0 1-166.4 166.656 35.2256 35.2256 0 0 0 29.0304 64.256 402.7904 402.7904 0 0 0 201.6256-201.984z m84.9408 77.9776a35.2256 35.2256 0 0 0-46.592 17.664 288.4096 288.4096 0 0 1-144.4352 144.6912 35.2256 35.2256 0 0 0 29.0304 64.2048 358.8096 358.8096 0 0 0 179.6608-179.968 35.2256 35.2256 0 0 0-17.664-46.592zM350.464 831.2832a332.3392 332.3392 0 0 1-166.4-166.656 35.2256 35.2256 0 0 0-64.256 28.928 402.8416 402.8416 0 0 0 201.6256 201.9328 35.2256 35.2256 0 1 0 29.0304-64.2048z m473.9584-323.4304c0-174.3872-142.6944-317.0816-317.0816-317.0816-174.3872 0-317.0816 142.6944-317.0816 317.0816 0 174.4384 142.6944 317.1328 317.0816 317.1328 174.3872 0 317.0816-142.6944 317.0816-317.1328z m-444.8256 191.8464a231.2192 231.2192 0 1 1 291.84-27.648 231.2192 231.2192 0 0 1-291.84 27.648z m128.3584-298.8544a107.1104 107.1104 0 0 0-106.8032 106.8032c0 58.7264 48.0768 106.8032 106.8032 106.8032a107.1104 107.1104 0 0 0 106.8032-106.8032A107.1104 107.1104 0 0 0 507.904 400.8448z" fill="#707070" p-id="7221"></path></svg>