<?xml version="1.0" standalone="no"?><!DOCTYPE svg PUBLIC "-//W3C//DTD SVG 1.1//EN" "http://www.w3.org/Graphics/SVG/1.1/DTD/svg11.dtd"><svg t="1751188254948" class="icon" viewBox="0 0 1024 1024" version="1.1" xmlns="http://www.w3.org/2000/svg" p-id="10095" id="mx_n_1751188254949" xmlns:xlink="http://www.w3.org/1999/xlink" width="200" height="200"><path d="M366.592 634.88a95.232 95.232 0 0 1-26.2144-3.6864 105.6768 105.6768 0 0 1-24.576-10.8544 102.4 102.4 0 0 1-20.48-15.1552l-2.2528-3.2768a25.8048 25.8048 0 0 1-2.048-13.1072 22.3232 22.3232 0 0 1 4.5056-10.8544 18.432 18.432 0 0 1 9.4208-6.5536 18.0224 18.0224 0 0 1 4.9152 0 20.48 20.48 0 0 1 8.192 1.8432 24.9856 24.9856 0 0 1 10.24 7.3728 21.9136 21.9136 0 0 0 7.5776 5.5296 59.8016 59.8016 0 0 0 13.5168 4.9152 40.96 40.96 0 0 0 9.8304 1.6384 83.968 83.968 0 0 0 10.24 0l5.5296-1.8432a14.9504 14.9504 0 0 0 5.12-3.6864 11.4688 11.4688 0 0 0 4.096-6.5536 13.7216 13.7216 0 0 0 0-7.5776 20.48 20.48 0 0 0-3.8912-6.9632 11.264 11.264 0 0 0-6.144-4.096 114.2784 114.2784 0 0 0-18.6368-4.9152c-6.5536-1.2288-12.9024-2.6624-18.8416-4.3008a72.4992 72.4992 0 0 1-18.0224-7.3728 52.8384 52.8384 0 0 1-15.9744-13.9264 27.2384 27.2384 0 0 1-5.5296-9.4208 95.0272 95.0272 0 0 1-2.4576-9.216 39.1168 39.1168 0 0 1 2.2528-24.7808 77.824 77.824 0 0 1 11.8784-17.2032 67.1744 67.1744 0 0 1 20.48-15.5648 81.92 81.92 0 0 1 24.1664-6.7584 96.4608 96.4608 0 0 1 10.8544 0 71.68 71.68 0 0 1 14.7456 1.2288 91.7504 91.7504 0 0 1 24.576 7.168 17.2032 17.2032 0 0 1 10.4448 10.8544 21.9136 21.9136 0 0 1 0 13.5168 20.48 20.48 0 0 1-7.5776 11.0592 16.5888 16.5888 0 0 1-10.6496 3.4816h-3.4816l-10.8544-4.3008-11.264-2.6624h-7.9872l-9.0112 1.6384-7.7824 2.6624a13.1072 13.1072 0 0 0-4.5056 2.4576 14.1312 14.1312 0 0 0-3.4816 4.096 7.7824 7.7824 0 0 0-1.6384 4.7104 3.4816 3.4816 0 0 0 1.8432 3.8912 20.48 20.48 0 0 0 7.3728 3.8912l18.0224 3.4816a129.6384 129.6384 0 0 1 19.456 5.12 80.4864 80.4864 0 0 1 18.0224 8.3968 48.9472 48.9472 0 0 1 14.9504 14.1312 42.8032 42.8032 0 0 1 9.4208 17.2032 52.4288 52.4288 0 0 1 2.2528 19.456 57.9584 57.9584 0 0 1-4.5056 18.432 52.224 52.224 0 0 1-10.6496 15.7696 50.9952 50.9952 0 0 1-9.8304 7.9872c-3.2768 2.2528-6.7584 4.3008-10.4448 6.3488a53.8624 53.8624 0 0 1-25.1904 6.3488zM526.336 634.88a95.232 95.232 0 0 1-26.2144-3.6864 105.6768 105.6768 0 0 1-24.576-10.8544 95.6416 95.6416 0 0 1-20.48-15.1552l-2.2528-3.2768a25.8048 25.8048 0 0 1-2.048-13.1072 22.3232 22.3232 0 0 1 4.5056-10.8544 18.432 18.432 0 0 1 9.4208-6.5536 18.0224 18.0224 0 0 1 4.9152 0 20.48 20.48 0 0 1 8.192 1.8432 24.9856 24.9856 0 0 1 10.24 7.3728 20.48 20.48 0 0 0 7.5776 5.5296 59.8016 59.8016 0 0 0 13.5168 4.9152 40.96 40.96 0 0 0 9.8304 1.6384 83.968 83.968 0 0 0 10.24 0l5.5296-1.8432a14.9504 14.9504 0 0 0 5.12-3.6864 14.5408 14.5408 0 0 0 4.3008-6.5536 15.7696 15.7696 0 0 0 0-7.5776 20.48 20.48 0 0 0-3.8912-6.9632 11.264 11.264 0 0 0-6.144-4.096 111.2064 111.2064 0 0 0-18.8416-4.9152c-6.3488-1.2288-12.6976-2.6624-18.6368-4.3008a72.4992 72.4992 0 0 1-18.0224-7.3728 52.8384 52.8384 0 0 1-15.9744-13.9264 27.2384 27.2384 0 0 1-5.5296-9.4208 95.0272 95.0272 0 0 1-2.4576-9.216 39.1168 39.1168 0 0 1 2.2528-24.7808 71.4752 71.4752 0 0 1 11.8784-17.2032 67.1744 67.1744 0 0 1 20.48-15.5648 81.92 81.92 0 0 1 24.1664-6.7584 96.4608 96.4608 0 0 1 10.8544 0 71.68 71.68 0 0 1 14.7456 1.2288 91.7504 91.7504 0 0 1 24.576 7.168 17.2032 17.2032 0 0 1 10.4448 10.8544 21.9136 21.9136 0 0 1 0 13.5168 20.48 20.48 0 0 1-7.5776 11.0592 16.5888 16.5888 0 0 1-10.6496 3.4816H552.96l-11.6736-4.3008-11.264-2.6624h-8.192l-8.8064 1.6384a57.344 57.344 0 0 0-7.7824 2.6624 13.1072 13.1072 0 0 0-4.5056 2.4576 14.1312 14.1312 0 0 0-3.4816 4.096 7.3728 7.3728 0 0 0-1.6384 4.7104 3.8912 3.8912 0 0 0 1.8432 4.096 24.9856 24.9856 0 0 0 7.3728 3.6864l18.0224 3.4816a129.6384 129.6384 0 0 1 19.456 5.12 84.7872 84.7872 0 0 1 18.0224 8.3968 48.9472 48.9472 0 0 1 14.9504 14.1312 48.3328 48.3328 0 0 1 9.4208 17.2032 52.4288 52.4288 0 0 1 2.2528 19.456 57.9584 57.9584 0 0 1-4.5056 18.432 52.224 52.224 0 0 1-10.6496 15.7696 50.9952 50.9952 0 0 1-9.8304 7.9872c-3.2768 2.2528-6.7584 4.3008-10.4448 6.3488a53.8624 53.8624 0 0 1-25.1904 6.3488zM628.3264 629.9648a16.5888 16.5888 0 0 1-11.6736-4.7104 18.432 18.432 0 0 1-5.9392-10.24 77.0048 77.0048 0 0 1-2.048-12.288v-12.6976-50.3808-40.96-23.3472a80.2816 80.2816 0 0 1 1.4336-14.5408 17.6128 17.6128 0 0 1 4.096-9.216 20.48 20.48 0 0 1 7.3728-4.9152 16.384 16.384 0 0 1 6.9632-1.4336h2.2528a25.8048 25.8048 0 0 1 8.8064 2.6624 20.48 20.48 0 0 1 7.168 6.144 15.7696 15.7696 0 0 1 3.072 9.4208v124.5184h67.3792a29.2864 29.2864 0 0 1 11.4688 9.216 18.8416 18.8416 0 0 1 3.8912 11.8784 19.2512 19.2512 0 0 1-4.5056 11.264 24.1664 24.1664 0 0 1-12.288 7.7824 43.2128 43.2128 0 0 1-8.8064 1.2288h-68.4032z" p-id="10096"></path><path d="M819.2 81.92H204.8a61.44 61.44 0 0 0-61.44 61.44v737.28a61.44 61.44 0 0 0 61.44 61.44h614.4a61.44 61.44 0 0 0 61.44-61.44V143.36a61.44 61.44 0 0 0-61.44-61.44z m-81.92 40.96v128.6144l-30.9248-17.6128a40.96 40.96 0 0 0-40.96 0l-30.5152 17.6128V122.88z m102.4 757.76a20.48 20.48 0 0 1-20.48 20.48H204.8a20.48 20.48 0 0 1-20.48-20.48V143.36a20.48 20.48 0 0 1 20.48-20.48h389.12v128.6144A40.96 40.96 0 0 0 614.4 286.72a40.96 40.96 0 0 0 20.48 5.5296 40.96 40.96 0 0 0 20.48-5.5296l30.9248-17.6128L716.8 286.72a40.96 40.96 0 0 0 61.44-35.4304V122.88h40.96a20.48 20.48 0 0 1 20.48 20.48z" p-id="10097"></path></svg>