<?xml version="1.0" standalone="no"?><!DOCTYPE svg PUBLIC "-//W3C//DTD SVG 1.1//EN" "http://www.w3.org/Graphics/SVG/1.1/DTD/svg11.dtd"><svg t="1721293482486" class="icon" viewBox="0 0 1024 1024" version="1.1" xmlns="http://www.w3.org/2000/svg" p-id="28582" xmlns:xlink="http://www.w3.org/1999/xlink" width="200" height="200"><path d="M0 0m64 0l896 0q64 0 64 64l0 0q0 64-64 64l-896 0q-64 0-64-64l0 0q0-64 64-64Z" p-id="28583" fill="#707070"></path><path d="M0 896m64 0l896 0q64 0 64 64l0 0q0 64-64 64l-896 0q-64 0-64-64l0 0q0-64 64-64Z" p-id="28584" fill="#707070"></path><path d="M64 256m64 0l0 0q64 0 64 64l0 384q0 64-64 64l0 0q-64 0-64-64l0-384q0-64 64-64Z" p-id="28585" fill="#707070"></path><path d="M448 256m64 0l0 0q64 0 64 64l0 192q0 64-64 64l0 0q-64 0-64-64l0-192q0-64 64-64Z" p-id="28586" fill="#707070"></path><path d="M832 256m64 0l0 0q64 0 64 64l0 384q0 64-64 64l0 0q-64 0-64-64l0-384q0-64 64-64Z" p-id="28587" fill="#707070"></path><path d="M256 256m64 0l192 0q64 0 64 64l0 0q0 64-64 64l-192 0q-64 0-64-64l0 0q0-64 64-64Z" p-id="28588" fill="#707070"></path><path d="M640 256m64 0l192 0q64 0 64 64l0 0q0 64-64 64l-192 0q-64 0-64-64l0 0q0-64 64-64Z" p-id="28589" fill="#707070"></path><path d="M256 448m64 0l192 0q64 0 64 64l0 0q0 64-64 64l-192 0q-64 0-64-64l0 0q0-64 64-64Z" p-id="28590" fill="#707070"></path><path d="M640 448m64 0l192 0q64 0 64 64l0 0q0 64-64 64l-192 0q-64 0-64-64l0 0q0-64 64-64Z" p-id="28591" fill="#707070"></path><path d="M256 640m64 0l192 0q64 0 64 64l0 0q0 64-64 64l-192 0q-64 0-64-64l0 0q0-64 64-64Z" p-id="28592" fill="#707070"></path><path d="M640 640m64 0l192 0q64 0 64 64l0 0q0 64-64 64l-192 0q-64 0-64-64l0 0q0-64 64-64Z" p-id="28593" fill="#707070"></path><path d="M256 448m64 0l0 0q64 0 64 64l0 192q0 64-64 64l0 0q-64 0-64-64l0-192q0-64 64-64Z" p-id="28594" fill="#707070"></path></svg>