<?xml version="1.0" standalone="no"?><!DOCTYPE svg PUBLIC "-//W3C//DTD SVG 1.1//EN" "http://www.w3.org/Graphics/SVG/1.1/DTD/svg11.dtd"><svg t="1722512466198" class="icon" viewBox="0 0 1024 1024" version="1.1" xmlns="http://www.w3.org/2000/svg" p-id="13254" xmlns:xlink="http://www.w3.org/1999/xlink" width="200" height="200"><path d="M107.8708 246.75801c-12.296047 0-22.836101-4.089132-31.619138-12.296047-8.783037-8.192589-13.174044-17.854647-13.174044-28.984125L63.077617 110.621447c0-11.7056 4.391007-21.655206 13.174044-29.862121 8.783037-8.192589 19.323091-12.296047 31.619138-12.296047l572.651358 0c12.296047 0 22.836101 4.103458 31.619138 12.296047 8.783037 8.206916 13.174044 18.156522 13.174044 29.862121l0 94.856391c0 11.129478-4.39203 20.790512-13.174044 28.984125-8.783037 8.206916-19.323091 12.296047-31.619138 12.296047L107.8708 246.75801zM107.8708 478.629985c-12.296047 0-22.836101-4.089132-31.619138-12.296047-8.783037-8.192589-13.174044-18.142196-13.174044-29.862121l0-94.856391c0-11.116175 4.391007-20.777209 13.174044-28.984125 8.783037-8.192589 19.323091-12.296047 31.619138-12.296047l572.651358 0c12.296047 0 22.836101 4.103458 31.619138 12.296047 8.783037 8.206916 13.174044 17.86795 13.174044 28.984125l0 94.856391c0 11.719926-4.39203 21.669532-13.174044 29.862121-8.783037 8.206916-19.323091 12.296047-31.619138 12.296047L107.8708 478.629985zM413.519058 593.687464c-38.645159 9.962909-72.610738 28.545126-101.882412 55.772234-29.286 27.227108-44.50461 61.631686-45.671179 103.20043-1.757017 42.158169 12.296047 88.708368 42.158169 139.649574-35.132148 0-64.266699 0-87.391373 0-23.137976 0-45.973054 0-68.50728 0-22.547529 0-38.508036 0-47.867194 0-19.912515 0-33.087583-12.886495-39.523155-38.645159 0-50.941206 0-92.797499 0-125.59651 0-32.785707 0-64.403822 0-94.856391 0-30.438243 0-50.941206 0-61.48126 0-21.079084 13.174044-34.254152 39.523155-39.523155l348.685447 0.877997C437.233156 543.04711 424.059112 563.248198 413.519058 593.687464L413.519058 593.687464zM158.812005 110.621447c-12.296047 0-22.698978 4.253884-31.18014 12.735046-8.494465 8.494465-12.735046 18.883069-12.735046 31.18014 0 11.719926 4.240581 21.819958 12.735046 30.30112 8.481162 8.494465 18.883069 12.735046 31.18014 12.735046 11.7056 0 21.806655-4.240581 30.30112-12.735046 8.481162-8.481162 12.735046-18.581194 12.735046-30.30112 0-12.296047-4.253884-22.684652-12.735046-31.18014C180.618661 114.876354 170.518628 110.621447 158.812005 110.621447L158.812005 110.621447zM158.812005 345.128435c-12.296047 0-22.698978 4.253884-31.18014 12.735046-8.494465 8.494465-12.735046 18.883069-12.735046 31.18014 0 11.719926 4.240581 21.819958 12.735046 30.30112 8.481162 8.494465 18.883069 12.735046 31.18014 12.735046 11.7056 0 21.806655-4.240581 30.30112-12.735046 8.481162-8.481162 12.735046-18.883069 12.735046-31.18014 0-11.7056-4.253884-21.806655-12.735046-30.30112C180.618661 349.382319 170.518628 345.128435 158.812005 345.128435L158.812005 345.128435zM877.261984 666.585751c56.787354 28.695552 85.195358 67.340711 85.195358 115.935476 0 49.185212-28.695552 85.195358-86.073354 108.030435L406.493038 890.551662c-59.724243-31.028691-89.586364-74.353428-89.586364-129.98854 0-55.620785 19.171642-89.874937 57.528228-102.761432 38.343283-12.872169 66.599837-16.688077 84.756359-11.418051 2.923586-50.351781 22.534226-80.213903 58.846246-89.586364 43.915186-4.089132 76.110445 3.51301 96.613408 22.836101 60.300364-54.454216 119.448486-70.551846 177.416735-48.306192C850.610998 552.996716 879.017978 598.078471 877.261984 666.585751L877.261984 666.585751z" fill="#707070" p-id="13255"></path></svg>