<?xml version="1.0" standalone="no"?><!DOCTYPE svg PUBLIC "-//W3C//DTD SVG 1.1//EN" "http://www.w3.org/Graphics/SVG/1.1/DTD/svg11.dtd"><svg t="1721735221377" class="icon" viewBox="0 0 1024 1024" version="1.1" xmlns="http://www.w3.org/2000/svg" p-id="10059" xmlns:xlink="http://www.w3.org/1999/xlink" width="200" height="200"><path d="M822.857143 73.142857h-621.714286C131.657143 73.142857 73.142857 131.657143 73.142857 201.142857v142.628572h877.714286V201.142857C950.857143 131.657143 892.342857 73.142857 822.857143 73.142857zM208.457143 230.4c-14.628571 14.628571-40.228571 14.628571-51.2 0-14.628571-10.971429-14.628571-36.571429 0-51.2 14.628571-14.628571 36.571429-14.628571 51.2 0 14.628571 14.628571 14.628571 40.228571 0 51.2z m146.285714 0c-14.628571 14.628571-40.228571 14.628571-51.2 0-14.628571-14.628571-14.628571-36.571429 0-51.2 14.628571-14.628571 36.571429-14.628571 51.2 0 14.628571 14.628571 14.628571 40.228571 0 51.2z m146.285714 0c-10.971429 14.628571-36.571429 14.628571-51.2 0-14.628571-10.971429-14.628571-36.571429 0-51.2 14.628571-14.628571 40.228571-14.628571 51.2 0 14.628571 14.628571 14.628571 40.228571 0 51.2zM73.142857 822.857143C73.142857 892.342857 131.657143 950.857143 201.142857 950.857143h621.714286c69.485714 0 128-58.514286 128-128V416.914286H73.142857v405.942857z m442.514286-29.257143H303.542857c-21.942857 0-36.571429-14.628571-36.571428-36.571429s14.628571-36.571429 36.571428-36.571428h215.771429c21.942857 0 36.571429 14.628571 36.571428 36.571428s-18.285714 36.571429-40.228571 36.571429z m223.085714 0h-91.428571c-21.942857 0-36.571429-14.628571-36.571429-36.571429s14.628571-36.571429 36.571429-36.571428h91.428571c21.942857 0 36.571429 14.628571 36.571429 36.571428s-14.628571 36.571429-36.571429 36.571429z m-186.514286-256h186.514286c21.942857 0 36.571429 14.628571 36.571429 36.571429s-14.628571 36.571429-36.571429 36.571428h-186.514286c-21.942857 0-36.571429-14.628571-36.571428-36.571428s14.628571-36.571429 36.571428-36.571429z m-248.685714 0h113.371429c21.942857 0 36.571429 14.628571 36.571428 36.571429s-14.628571 36.571429-36.571428 36.571428H303.542857c-21.942857 0-36.571429-14.628571-36.571428-36.571428s14.628571-36.571429 36.571428-36.571429z" p-id="10060" fill="#707070"></path></svg>